<svg id="Layer_3" data-name="Layer 3" xmlns="http://www.w3.org/2000/svg" viewBox="0 0 75.22 70.46"><defs><style>.cls-1,.cls-2{fill:none;stroke:#fff;stroke-linecap:round;stroke-linejoin:round;}.cls-1{stroke-width:4px;}.cls-2{stroke-width:4.18px;}</style></defs><title>trybe_icon_svg</title><path class="cls-1" d="M43.54,46.69l8.11,4.62a1.31,1.31,0,0,1,0,2.28l-8.29,4.79a1.37,1.37,0,0,1-1.41,0L32.9,52.83a1.3,1.3,0,0,1-.64-1.11V41.81a1.31,1.31,0,0,0-.66-1.13L23.5,36a1.3,1.3,0,0,1,.05-2.3l8-4.19a1.3,1.3,0,0,0,.71-1.16V18a1.32,1.32,0,0,1,.64-1.12l7.9-4.77a1.36,1.36,0,0,1,2.07,1.13v9a1.31,1.31,0,0,0,.67,1.15L51.71,28a1.31,1.31,0,0,1,0,2.26l-8.27,5.16a1.3,1.3,0,0,0-.62,1.11v9A1.31,1.31,0,0,0,43.54,46.69Z"/><rect class="cls-2" x="2.09" y="2.09" width="71.04" height="66.28" rx="18.69"/></svg>