<svg id="Layer_1" data-name="Layer 1" xmlns="http://www.w3.org/2000/svg" viewBox="0 0 1943 804.33"><defs><style>.cls-1{fill:#290244;}.cls-2{fill:#381c63;}.cls-3{fill:#340d56;}</style></defs><title>Curves_bg_Svg</title><path class="cls-1" d="M1943,0V613.67C1882.32,658,1815.2,572.85,1657.3,707c-24.14,20.51-83.71,58.73-168.34,54.76-129.81-6.08-226.61-133-304.23-122.77-77.07,10.14-195,147.66-393.43,86.84C687.1,693.92,655.17,622.5,554.2,654.12,412.91,698.36,395.28,822.83,292.38,802c-83.85-17-81.17-90.92-185.62-95C56.77,705.08,22.2,727.88,0,745V43.81C59.08,27,86.41,61.47,110.1,101.11c21.94,36.75,40.75,77.92,78.8,86.7,47,10.84,70.74-27.51,105.47-18.25,53.24,14.2,63.71,115.9,109.52,137.91,65.41,31.44,143.1-53.66,242.8-39.56,81.18,11.48,124,117.68,217.26,146.87,148.6,46.52,210.18-140,513.46-62.69,196.5,50.08,153-256.92,346.82-249.46C1874.94,108.43,1943,0,1943,0Z"/><path class="cls-2" d="M1943,280V613.67C1882.32,658,1815.2,572.85,1657.3,707c-24.14,20.51-83.71,58.73-168.34,54.76-129.81-6.08-226.61-133-304.23-122.77-77.07,10.14-195,147.66-393.43,86.84C687.1,693.92,655.17,622.5,554.2,654.12,412.91,698.36,395.28,822.83,292.38,802c-83.85-17-81.17-90.92-185.62-95C56.77,705.08,22.2,727.88,0,745V342.53c59.08-16.84,116.76,1,140.45,40.64,21.94,36.75,108.89,155.36,146.94,164.14,47,10.84,140.36-39,175.09-29.7,53.24,14.2,83.94-61.09,129.75-39.08,65.41,31.44,81.64,54.68,181.34,68.78,81.18,11.49,104.72-10.42,197.93,18.76,148.6,46.53,72.5-111.68,375.79-34.39,196.5,50.08,250.17-171.6,444-164.14C1942,373.34,1943,280,1943,280Z"/><path class="cls-3" d="M0,218.24c67.21-14.2,158.48,24.33,217.3,146s78,180.18,153.12,152.62C440.9,491,541.64,364.37,716.56,478c249.47,162.12,327.22-45.2,491.5-53.29,59.23-2.92,150.29,60.65,195.72,73.37,50.7,14.2,119.61,11.1,166.31-73,143.49-258.44,248.45-60.69,372.91-209.67V380c-167.06,86.35-218.77-77.93-364.8,138.77-33.85,50.23-74.37,96.3-133.86,109.18-66.33,14.36-169.2-78-237-86.62-148.55-18.86-216.46,190.1-464.74,39-75-45.67-149.43-58-190.54-52.67-85.83,11.1-174,122.56-230.26,122.57-60.39,0-88.23-68-115.61-106.48S115.32,404.83,0,426.12Z"/></svg>